<svg width="50" height="50" viewBox="0 0 50 50" fill="none" xmlns="http://www.w3.org/2000/svg">
<path d="M15.468 34.0295C15.8782 34.4397 16.4346 34.6702 17.0148 34.6702C17.5949 34.6702 18.1513 34.4397 18.5616 34.0295L30.8122 21.7789L30.8122 29.9047C30.8322 30.4712 31.0713 31.0077 31.4791 31.4014C31.8869 31.7951 32.4315 32.0151 32.9983 32.0151C33.5651 32.0151 34.1098 31.7951 34.5176 31.4014C34.9254 31.0077 35.1645 30.4712 35.1845 29.9047L35.1845 16.4992C35.1841 15.9195 34.9537 15.3636 34.5438 14.9537C34.1339 14.5438 33.578 14.3134 32.9983 14.313L19.5928 14.313C19.2992 14.3027 19.0065 14.3515 18.7323 14.4567C18.458 14.5619 18.2077 14.7213 17.9963 14.9253C17.785 15.1293 17.6169 15.3738 17.5021 15.6442C17.3873 15.9146 17.3281 16.2054 17.3281 16.4992C17.3281 16.7929 17.3873 17.0837 17.5021 17.3541C17.6169 17.6245 17.785 17.869 17.9963 18.073C18.2077 18.277 18.458 18.4364 18.7323 18.5416C19.0065 18.6468 19.2992 18.6957 19.5928 18.6853L27.7186 18.6853L15.468 30.9359C14.6142 31.7898 14.6142 33.1757 15.468 34.0295Z" fill="#FF0000"/>
</svg>
