<svg width="1325" height="819" viewBox="0 0 1325 819" fill="none" xmlns="http://www.w3.org/2000/svg">
<path fill-rule="evenodd" clip-rule="evenodd" d="M707.905 142.371C808.554 118.47 905.832 -47.4167 953.234 13.2596C1026.65 107.235 724.119 244.533 844.348 317.022C961.361 387.573 1164.26 172.741 1303.83 224.646C1411.22 264.581 1076.74 315.724 1044.47 391.446C1025.28 436.462 1211.01 452.539 1187.85 496.811C1164.05 542.318 989.996 488.94 969.351 535.051C933.853 614.332 1110.05 695.447 1064.35 772.641C1035.58 821.246 901.707 780.358 819.93 787.465C741.408 794.289 661.645 832.419 587.97 814.042C509.668 794.512 479.355 734.595 432.182 690.748C396.145 657.254 381.051 616.728 341.415 584.878C301.056 552.448 243.071 531.873 197.589 502.239C132.336 459.721 -48.8653 415.306 12.4923 370.559C107.159 301.52 321.914 381.106 438.282 326.705C496.945 299.28 373.54 237.71 391.804 193.232C407.141 155.881 465.768 124.462 525.257 114.89C586.424 105.048 648.842 156.396 707.905 142.371Z" fill="black" fill-opacity="0.35"/>
</svg>
