<svg width="197" height="68" viewBox="0 0 197 68" fill="none" xmlns="http://www.w3.org/2000/svg">
<mask id="mask0_1_68" style="mask-type:luminance" maskUnits="userSpaceOnUse" x="0" y="0" width="69" height="68">
<path d="M0 0H69V68H0V0Z" fill="white"/>
</mask>
<g mask="url(#mask0_1_68)">
<mask id="mask1_1_68" style="mask-type:luminance" maskUnits="userSpaceOnUse" x="0" y="-1" width="70" height="69">
<path d="M0.170563 -0.0582428H69.1706V67.9418H0.170563V-0.0582428Z" fill="white"/>
</mask>
<g mask="url(#mask1_1_68)">
<path d="M58.4005 29.2633H56.8819V28.3147C56.8819 27.9016 57.2219 27.5667 57.6412 27.5667C58.0606 27.5667 58.4005 27.9016 58.4005 28.3147V29.2633Z" fill="#FF0000"/>
<path fill-rule="evenodd" clip-rule="evenodd" d="M34.6479 40.3168C38.361 40.3168 41.6451 38.1542 43.6418 36.4675L55.2245 35.6V33.4113L43.6415 32.5438C41.6448 30.8571 38.3608 28.6946 34.6479 28.6946C30.935 28.6946 27.651 30.857 25.6542 32.5437L14.0703 33.4113V35.6L25.6539 36.4676C27.6507 38.1542 30.9349 40.3168 34.6479 40.3168Z" fill="#FF0000"/>
<path d="M57.641 37.2701C56.2148 37.2701 55.0585 36.1306 55.0585 34.7251V31.0135C55.0585 30.1695 55.7528 29.4852 56.6094 29.4852H58.6727C59.5291 29.4852 60.2235 30.1695 60.2235 31.0135V34.7251C60.2235 36.1306 59.0674 37.2701 57.641 37.2701Z" fill="#FF0000"/>
<path d="M11.7002 37.2701C10.274 37.2701 9.11769 36.1306 9.11769 34.7251V31.0135C9.11769 30.1695 9.812 29.4852 10.6684 29.4852H12.7318C13.5884 29.4852 14.2827 30.1695 14.2827 31.0135V34.7251C14.2827 36.1306 13.1264 37.2701 11.7002 37.2701Z" fill="#FF0000"/>
<path d="M12.4594 29.2633H10.9411V28.3147C10.9411 27.9016 11.281 27.5667 11.7002 27.5667C12.1195 27.5667 12.4594 27.9016 12.4594 28.3147V29.2633Z" fill="#FF0000"/>
<path d="M37.4931 34.5059C37.4931 36.0548 36.219 37.3105 34.6473 37.3105C33.0756 37.3105 31.8015 36.0548 31.8015 34.5059C31.8015 32.9569 33.0756 31.7014 34.6473 31.7014C36.219 31.7014 37.4931 32.9569 37.4931 34.5059Z" fill="white"/>
<path d="M36.4428 34.5059C36.4428 35.483 35.6391 36.2751 34.6476 36.2751C33.656 36.2751 32.8524 35.483 32.8524 34.5059C32.8524 33.5287 33.656 32.7367 34.6476 32.7367C34.8678 32.7367 35.079 32.7758 35.2737 32.8475C35.066 32.9751 34.928 33.2027 34.928 33.4619C34.928 33.8623 35.2575 34.187 35.6638 34.187C35.9376 34.187 36.1766 34.0399 36.3034 33.8211C36.3933 34.0319 36.4428 34.2631 36.4428 34.5059Z" fill="black"/>
<path d="M52.7071 28.4152H62.5749" stroke="#FF0000" stroke-width="4.66768" stroke-miterlimit="10" stroke-linecap="round"/>
<path d="M6.76666 28.4152H16.6345" stroke="#FF0000" stroke-width="4.66768" stroke-miterlimit="10" stroke-linecap="round"/>
</g>
</g>
<path d="M92.418 31.26C93.6907 31.5053 94.6337 31.766 95.247 32.042C95.8757 32.318 96.328 32.732 96.604 33.284C96.8953 33.8207 97.041 34.6027 97.041 35.63C97.041 36.78 96.834 37.6847 96.42 38.344C96.006 39.0033 95.3543 39.4787 94.465 39.77C93.5757 40.046 92.3643 40.184 90.831 40.184C88.761 40.184 86.8443 39.954 85.081 39.494V35.4H86.668L87.059 38.045C88.2857 38.3363 89.566 38.482 90.9 38.482C92.0347 38.482 92.8933 38.3977 93.476 38.229C94.074 38.0603 94.4803 37.7997 94.695 37.447C94.9097 37.079 95.017 36.5807 95.017 35.952C95.017 35.1853 94.925 34.6487 94.741 34.342C94.557 34.0353 94.189 33.7977 93.637 33.629C93.085 33.4603 92.0193 33.2303 90.44 32.939L89.865 32.824C88.6077 32.594 87.634 32.318 86.944 31.996C86.2693 31.6587 85.7863 31.2217 85.495 30.685C85.219 30.1483 85.081 29.4353 85.081 28.546C85.081 27.4573 85.2803 26.5987 85.679 25.97C86.093 25.326 86.737 24.866 87.611 24.59C88.485 24.314 89.6503 24.176 91.107 24.176C92.901 24.176 94.7563 24.3753 96.673 24.774V28.799H95.155L94.787 26.246C93.6217 26.0007 92.3643 25.878 91.015 25.878C89.957 25.878 89.1443 25.9623 88.577 26.131C88.0097 26.2843 87.6187 26.5297 87.404 26.867C87.2047 27.189 87.105 27.6337 87.105 28.201C87.105 28.9063 87.2047 29.4123 87.404 29.719C87.6187 30.0257 88.002 30.2633 88.554 30.432C89.1213 30.6007 90.1717 30.8307 91.705 31.122L92.418 31.26ZM112.96 28.431H111.603L111.005 26.016H103.185V31.306H107.762L108.107 29.535H109.372V34.733H108.107L107.762 32.962H103.185V38.344H111.005L111.603 35.699H112.96V40H99.5052V38.735L101.207 38.045V26.338L99.5052 25.671V24.36H112.96V28.431ZM131.714 24.36V25.671L130.012 26.338V40H127.666L118.811 26.821V38.045L120.628 38.735V40H115.43V38.735L117.132 38.045V26.338L115.43 25.671V24.36H119.478L128.31 37.516V26.338L126.493 25.671V24.36H131.714ZM139.387 25.671L137.685 26.338V38.045L139.387 38.735V40H134.005V38.735L135.707 38.045V26.338L134.005 25.671V24.36H139.387V25.671ZM155.504 28.776H154.239L153.572 26.016H149.409V38.045L151.341 38.735V40H145.499V38.735L147.431 38.045V26.016H143.268L142.601 28.776H141.336V24.36H155.504V28.776ZM170.909 28.431H169.552L168.954 26.016H161.134V31.306H165.711L166.056 29.535H167.321V34.733H166.056L165.711 32.962H161.134V38.344H168.954L169.552 35.699H170.909V40H157.454V38.735L159.156 38.045V26.338L157.454 25.671V24.36H170.909V28.431ZM178.761 25.671L177.059 26.338V38.344H184.488L185.086 35.699H186.443V40H173.379V38.735L175.081 38.045V26.338L173.379 25.671V24.36H178.761V25.671Z" fill="white"/>
</svg>
