<svg width="69" height="68" viewBox="0 0 69 68" fill="none" xmlns="http://www.w3.org/2000/svg">
<mask id="mask0_1_5" style="mask-type:luminance" maskUnits="userSpaceOnUse" x="0" y="0" width="69" height="68">
<path d="M0 0H69V68H0V0Z" fill="white"/>
</mask>
<g mask="url(#mask0_1_5)">
<mask id="mask1_1_5" style="mask-type:luminance" maskUnits="userSpaceOnUse" x="0" y="-1" width="70" height="69">
<path d="M0.170563 -0.0582428H69.1706V67.9418H0.170563V-0.0582428Z" fill="white"/>
</mask>
<g mask="url(#mask1_1_5)">
<path d="M58.4005 29.2633H56.8819V28.3147C56.8819 27.9016 57.2219 27.5667 57.6412 27.5667C58.0606 27.5667 58.4005 27.9016 58.4005 28.3147V29.2633Z" fill="#FF0000"/>
<path fill-rule="evenodd" clip-rule="evenodd" d="M34.6479 40.3168C38.361 40.3168 41.6451 38.1542 43.6418 36.4675L55.2245 35.6V33.4113L43.6415 32.5438C41.6448 30.8571 38.3608 28.6946 34.6479 28.6946C30.935 28.6946 27.651 30.857 25.6542 32.5437L14.0703 33.4113V35.6L25.6539 36.4676C27.6507 38.1542 30.9349 40.3168 34.6479 40.3168Z" fill="#FF0000"/>
<path d="M57.641 37.2701C56.2148 37.2701 55.0585 36.1306 55.0585 34.7251V31.0135C55.0585 30.1695 55.7528 29.4852 56.6094 29.4852H58.6727C59.5291 29.4852 60.2235 30.1695 60.2235 31.0135V34.7251C60.2235 36.1306 59.0674 37.2701 57.641 37.2701Z" fill="#FF0000"/>
<path d="M11.7002 37.2701C10.274 37.2701 9.11769 36.1306 9.11769 34.7251V31.0135C9.11769 30.1695 9.812 29.4852 10.6684 29.4852H12.7318C13.5884 29.4852 14.2827 30.1695 14.2827 31.0135V34.7251C14.2827 36.1306 13.1264 37.2701 11.7002 37.2701Z" fill="#FF0000"/>
<path d="M12.4594 29.2633H10.9411V28.3147C10.9411 27.9016 11.281 27.5667 11.7002 27.5667C12.1195 27.5667 12.4594 27.9016 12.4594 28.3147V29.2633Z" fill="#FF0000"/>
<path d="M37.4931 34.5059C37.4931 36.0548 36.219 37.3105 34.6473 37.3105C33.0756 37.3105 31.8015 36.0548 31.8015 34.5059C31.8015 32.9569 33.0756 31.7014 34.6473 31.7014C36.219 31.7014 37.4931 32.9569 37.4931 34.5059Z" fill="white"/>
<path d="M36.4428 34.5059C36.4428 35.483 35.6391 36.2751 34.6476 36.2751C33.656 36.2751 32.8524 35.483 32.8524 34.5059C32.8524 33.5287 33.656 32.7367 34.6476 32.7367C34.8678 32.7367 35.079 32.7758 35.2737 32.8475C35.066 32.9751 34.928 33.2027 34.928 33.4619C34.928 33.8623 35.2575 34.187 35.6638 34.187C35.9376 34.187 36.1766 34.0399 36.3034 33.8211C36.3933 34.0319 36.4428 34.2631 36.4428 34.5059Z" fill="black"/>
<path d="M52.7071 28.4152H62.5749" stroke="#FF0000" stroke-width="4.66768" stroke-miterlimit="10" stroke-linecap="round"/>
<path d="M6.76666 28.4152H16.6345" stroke="#FF0000" stroke-width="4.66768" stroke-miterlimit="10" stroke-linecap="round"/>
</g>
</g>
</svg>
