<svg width="197" height="68" viewBox="0 0 197 68" fill="none" xmlns="http://www.w3.org/2000/svg">
<mask id="mask0_1_68" style="mask-type:luminance" maskUnits="userSpaceOnUse" x="0" y="0" width="69" height="68">
<path d="M0 0H69V68H0V0Z" fill="white"/>
</mask>
<g mask="url(#mask0_1_68)">
<mask id="mask1_1_68" style="mask-type:luminance" maskUnits="userSpaceOnUse" x="0" y="-1" width="70" height="69">
<path d="M0.170563 -0.0582428H69.1706V67.9418H0.170563V-0.0582428Z" fill="white"/>
</mask>
<g mask="url(#mask1_1_68)">
<path d="M58.4004 29.2633H56.8819V28.3147C56.8819 27.9016 57.2219 27.5667 57.6412 27.5667C58.0606 27.5667 58.4004 27.9016 58.4004 28.3147V29.2633Z" fill="#FF0000"/>
<path fill-rule="evenodd" clip-rule="evenodd" d="M34.6479 40.3168C38.361 40.3168 41.6451 38.1542 43.6418 36.4675L55.2245 35.6V33.4113L43.6415 32.5438C41.6448 30.8571 38.3608 28.6946 34.6479 28.6946C30.935 28.6946 27.651 30.857 25.6542 32.5437L14.0703 33.4113V35.6L25.6539 36.4676C27.6507 38.1542 30.9349 40.3168 34.6479 40.3168Z" fill="#FF0000"/>
<path d="M57.641 37.2701C56.2148 37.2701 55.0585 36.1306 55.0585 34.7251V31.0135C55.0585 30.1695 55.7528 29.4852 56.6094 29.4852H58.6727C59.5291 29.4852 60.2235 30.1695 60.2235 31.0135V34.7251C60.2235 36.1306 59.0674 37.2701 57.641 37.2701Z" fill="#FF0000"/>
<path d="M11.7002 37.2701C10.274 37.2701 9.11769 36.1306 9.11769 34.7251V31.0135C9.11769 30.1695 9.812 29.4852 10.6684 29.4852H12.7318C13.5884 29.4852 14.2827 30.1695 14.2827 31.0135V34.7251C14.2827 36.1306 13.1264 37.2701 11.7002 37.2701Z" fill="#FF0000"/>
<path d="M12.4593 29.2633H10.9411V28.3147C10.9411 27.9016 11.2809 27.5667 11.7002 27.5667C12.1195 27.5667 12.4593 27.9016 12.4593 28.3147V29.2633Z" fill="#FF0000"/>
<path d="M37.4931 34.5059C37.4931 36.0548 36.219 37.3105 34.6473 37.3105C33.0756 37.3105 31.8015 36.0548 31.8015 34.5059C31.8015 32.9569 33.0756 31.7014 34.6473 31.7014C36.219 31.7014 37.4931 32.9569 37.4931 34.5059Z" fill="white"/>
<path d="M36.4428 34.5059C36.4428 35.483 35.6391 36.2751 34.6476 36.2751C33.656 36.2751 32.8524 35.483 32.8524 34.5059C32.8524 33.5287 33.656 32.7367 34.6476 32.7367C34.8678 32.7367 35.079 32.7758 35.2736 32.8475C35.066 32.9751 34.928 33.2027 34.928 33.4619C34.928 33.8623 35.2575 34.187 35.6638 34.187C35.9376 34.187 36.1766 34.0399 36.3034 33.8211C36.3933 34.0319 36.4428 34.2631 36.4428 34.5059Z" fill="black"/>
<path d="M52.7071 28.4152H62.5749" stroke="#FF0000" stroke-width="4.66768" stroke-miterlimit="10" stroke-linecap="round"/>
<path d="M6.76665 28.4152H16.6345" stroke="#FF0000" stroke-width="4.66768" stroke-miterlimit="10" stroke-linecap="round"/>
</g>
</g>
<path d="M91.153 42.23C89.8957 42.23 88.692 42.0537 87.542 41.701C86.392 41.333 85.4797 40.8653 84.805 40.298L85.84 37.975C86.484 38.481 87.2813 38.9027 88.232 39.24C89.1827 39.5773 90.1563 39.746 91.153 39.746C91.9963 39.746 92.6787 39.654 93.2 39.47C93.7213 39.286 94.1047 39.0407 94.35 38.734C94.5953 38.412 94.718 38.0517 94.718 37.653C94.718 37.1623 94.5417 36.7713 94.189 36.48C93.8363 36.1733 93.3763 35.9357 92.809 35.767C92.257 35.583 91.636 35.4143 90.946 35.261C90.2713 35.1077 89.589 34.9313 88.899 34.732C88.2243 34.5173 87.6033 34.249 87.036 33.927C86.484 33.5897 86.0317 33.145 85.679 32.593C85.3263 32.041 85.15 31.3357 85.15 30.477C85.15 29.603 85.38 28.8057 85.84 28.085C86.3153 27.349 87.0283 26.7663 87.979 26.337C88.945 25.8923 90.164 25.67 91.636 25.67C92.602 25.67 93.5603 25.7927 94.511 26.038C95.4617 26.2833 96.2897 26.636 96.995 27.096L96.052 29.419C95.3313 28.9897 94.5877 28.6753 93.821 28.476C93.0543 28.2613 92.3183 28.154 91.613 28.154C90.785 28.154 90.1103 28.2537 89.589 28.453C89.083 28.6523 88.7073 28.913 88.462 29.235C88.232 29.557 88.117 29.925 88.117 30.339C88.117 30.8297 88.2857 31.2283 88.623 31.535C88.9757 31.8263 89.428 32.0563 89.98 32.225C90.5473 32.3937 91.176 32.5623 91.866 32.731C92.556 32.8843 93.2383 33.0607 93.913 33.26C94.603 33.4593 95.224 33.72 95.776 34.042C96.3433 34.364 96.7957 34.801 97.133 35.353C97.4857 35.905 97.662 36.6027 97.662 37.446C97.662 38.3047 97.4243 39.102 96.949 39.838C96.489 40.5587 95.776 41.1413 94.81 41.586C93.844 42.0153 92.625 42.23 91.153 42.23ZM103.387 32.593H111.391V35.054H103.387V32.593ZM103.617 39.493H112.702V42H100.627V25.9H112.38V28.407H103.617V39.493ZM116.035 42V25.9H118.496L128.593 38.297H127.374V25.9H130.341V42H127.88L117.783 29.603H119.002V42H116.035ZM134.655 42V25.9H137.645V42H134.655ZM145.266 42V28.43H139.93V25.9H153.592V28.43H148.256V42H145.266ZM158.596 32.593H166.6V35.054H158.596V32.593ZM158.826 39.493H167.911V42H155.836V25.9H167.589V28.407H158.826V39.493ZM171.244 42V25.9H174.234V39.47H182.652V42H171.244Z" fill="white"/>
</svg>
