<svg width="182" height="182" viewBox="0 0 182 182" fill="none" xmlns="http://www.w3.org/2000/svg">
<rect width="182" height="182" rx="22" fill="white"/>
<g clip-path="url(#clip0_252_8)">
<path d="M76.3264 33.6699H33.6702V76.3262H76.3264V33.6699ZM69.217 69.2168H40.7795V40.7793H69.217V69.2168Z" fill="black"/>
<path d="M47.8889 47.8887H62.1077V62.1074H47.8889V47.8887ZM33.6702 147.42H76.3264V104.764H33.6702V147.42ZM40.7795 111.873H69.217V140.311H40.7795V111.873Z" fill="black"/>
<path d="M47.8889 118.982H62.1077V133.201H47.8889V118.982ZM104.764 33.6699V76.3262H147.42V33.6699H104.764ZM140.311 69.2168H111.873V40.7793H140.311V69.2168Z" fill="black"/>
<path d="M118.983 47.8887H133.201V62.1074H118.983V47.8887ZM47.8889 83.4355H33.6702V97.6543H54.9983V90.5449H47.8889V83.4355ZM83.4358 97.6543H97.6545V111.873H83.4358V97.6543ZM54.9983 83.4355H69.217V90.5449H54.9983V83.4355ZM97.6545 118.982H83.4358V126.092H90.5452V133.201H97.6545V126.092V118.982ZM76.3264 83.4355V90.5449H69.217V97.6543H83.4358V83.4355H76.3264ZM90.5452 62.1074H97.6545V76.3262H90.5452V62.1074ZM97.6545 90.5449V97.6543H111.873V83.4355H90.5452V90.5449H97.6545ZM83.4358 76.3262H90.5452V83.4355H83.4358V76.3262ZM97.6545 133.201H111.873V147.42H97.6545V133.201ZM83.4358 133.201H90.5452V147.42H83.4358V133.201ZM97.6545 111.873H104.764V118.982H97.6545V111.873ZM97.6545 54.998V40.7793H90.5452V33.6699H83.4358V62.1074H90.5452V54.998H97.6545ZM118.983 133.201H126.092V147.42H118.983V133.201ZM118.983 118.982H133.201V126.092H118.983V118.982ZM111.873 126.092H118.983V133.201H111.873V126.092ZM104.764 118.982H111.873V126.092H104.764V118.982ZM133.201 104.764V111.873H140.311V118.982H147.42V104.764H140.311H133.201ZM140.311 126.092H133.201V147.42H147.42V133.201H140.311V126.092ZM104.764 104.764V111.873H126.092V97.6543H111.873V104.764H104.764ZM118.983 83.4355V90.5449H133.201V97.6543H147.42V83.4355H133.201H118.983Z" fill="black"/>
</g>
<defs>
<clipPath id="clip0_252_8">
<rect width="113.75" height="113.75" fill="white" transform="translate(33.6702 33.6699)"/>
</clipPath>
</defs>
</svg>
