<svg width="192" height="192" viewBox="0 0 192 192" fill="none" xmlns="http://www.w3.org/2000/svg">
<rect x="2.5" y="2.5" width="187" height="187" rx="22.5" stroke="white" stroke-width="5"/>
<g clip-path="url(#clip0_23_17)">
<path d="M81.3263 38.6699H38.6701V81.3262H81.3263V38.6699ZM74.217 74.2168H45.7795V45.7793H74.217V74.2168Z" fill="white"/>
<path d="M52.8889 52.8887H67.1076V67.1074H52.8889V52.8887ZM38.6701 152.42H81.3263V109.764H38.6701V152.42ZM45.7795 116.873H74.217V145.311H45.7795V116.873Z" fill="white"/>
<path d="M52.8889 123.982H67.1076V138.201H52.8889V123.982ZM109.764 38.6699V81.3262H152.42V38.6699H109.764ZM145.311 74.2168H116.873V45.7793H145.311V74.2168Z" fill="white"/>
<path d="M123.983 52.8887H138.201V67.1074H123.983V52.8887ZM52.8889 88.4355H38.6701V102.654H59.9982V95.5449H52.8889V88.4355ZM88.4357 102.654H102.654V116.873H88.4357V102.654ZM59.9982 88.4355H74.217V95.5449H59.9982V88.4355ZM102.654 123.982H88.4357V131.092H95.5451V138.201H102.654V131.092V123.982ZM81.3264 88.4355V95.5449H74.217V102.654H88.4357V88.4355H81.3264ZM95.5451 67.1074H102.654V81.3262H95.5451V67.1074ZM102.654 95.5449V102.654H116.873V88.4355H95.5451V95.5449H102.654ZM88.4357 81.3262H95.5451V88.4355H88.4357V81.3262ZM102.654 138.201H116.873V152.42H102.654V138.201ZM88.4357 138.201H95.5451V152.42H88.4357V138.201ZM102.654 116.873H109.764V123.982H102.654V116.873ZM102.654 59.998V45.7793H95.5451V38.6699H88.4357V67.1074H95.5451V59.998H102.654ZM123.983 138.201H131.092V152.42H123.983V138.201ZM123.983 123.982H138.201V131.092H123.983V123.982ZM116.873 131.092H123.983V138.201H116.873V131.092ZM109.764 123.982H116.873V131.092H109.764V123.982ZM138.201 109.764V116.873H145.311V123.982H152.42V109.764H145.311H138.201ZM145.311 131.092H138.201V152.42H152.42V138.201H145.311V131.092ZM109.764 109.764V116.873H131.092V102.654H116.873V109.764H109.764ZM123.983 88.4355V95.5449H138.201V102.654H152.42V88.4355H138.201H123.983Z" fill="white"/>
</g>
<defs>
<clipPath id="clip0_23_17">
<rect width="113.75" height="113.75" fill="white" transform="translate(38.6701 38.6699)"/>
</clipPath>
</defs>
</svg>
