<svg width="150" height="150" viewBox="0 0 150 150" fill="none" xmlns="http://www.w3.org/2000/svg">
<circle cx="75" cy="75" r="75" fill="white"/>
<path d="M71.125 78.5417C74.3333 72.75 80.5 69.3333 84.0833 64.2083C87.875 58.8333 85.75 48.7917 75 48.7917C67.9583 48.7917 64.5 54.125 63.0417 58.5417L52.25 54C55.2083 45.125 63.25 37.5 74.9583 37.5C84.75 37.5 91.4583 41.9583 94.875 47.5417C97.7917 52.3333 99.5 61.2917 95 67.9583C90 75.3333 85.2083 77.5833 82.625 82.3333C81.5833 84.25 81.1667 85.5 81.1667 91.6667H69.125C69.0833 88.4167 68.5833 83.125 71.125 78.5417ZM83.3333 108.333C83.3333 112.917 79.5833 116.667 75 116.667C70.4167 116.667 66.6667 112.917 66.6667 108.333C66.6667 103.75 70.4167 100 75 100C79.5833 100 83.3333 103.75 83.3333 108.333Z" fill="#C62F39"/>
</svg>
